<?xml version="1.0" encoding="UTF-8" standalone="no"?>
<!-- Created with Inkscape (http://www.inkscape.org/) -->

<svg
   width="50"
   height="50"
   viewBox="0 0 50 50"
   version="1.1"
   id="SVGRoot"
   sodipodi:docname="C:\Users\Desktop\AppData\Local\Temp\ink_ext_XXXXXX.svgJMJPQ1"
   inkscape:export-filename="bitmap.svg"
   inkscape:export-xdpi="96"
   inkscape:export-ydpi="96"
   xmlns:inkscape="http://www.inkscape.org/namespaces/inkscape"
   xmlns:sodipodi="http://sodipodi.sourceforge.net/DTD/sodipodi-0.dtd"
   xmlns="http://www.w3.org/2000/svg"
   xmlns:svg="http://www.w3.org/2000/svg">
  <sodipodi:namedview
     id="namedview5088"
     pagecolor="#ffffff"
     bordercolor="#000000"
     borderopacity="0.25"
     inkscape:showpageshadow="2"
     inkscape:pageopacity="0.0"
     inkscape:pagecheckerboard="0"
     inkscape:deskcolor="#d1d1d1"
     inkscape:document-units="px"
     showgrid="true"
     inkscape:zoom="0.25"
     inkscape:cx="94.0"
     inkscape:cy="94.0"
     inkscape:window-width="1440"
     inkscape:window-height="829"
     inkscape:window-x="-8"
     inkscape:window-y="-8"
     inkscape:window-maximized="0"
     inkscape:current-layer="layer1">
    <inkscape:grid
       type="xygrid"
       id="grid5094" />
  </sodipodi:namedview>
  <defs
     id="defs5083">
    <inkscape:path-effect
       effect="bspline"
       id="path-effect301"
       is_visible="true"
       lpeversion="1"
       weight="33.333333"
       steps="2"
       helper_size="0"
       apply_no_weight="true"
       apply_with_weight="true"
       only_selected="false" />
    <inkscape:path-effect
       effect="bspline"
       id="path-effect309"
       is_visible="true"
       lpeversion="1"
       weight="33.333333"
       steps="2"
       helper_size="0"
       apply_no_weight="true"
       apply_with_weight="true"
       only_selected="false" />
    <inkscape:path-effect
       effect="bspline"
       id="path-effect1214"
       is_visible="true"
       lpeversion="1"
       weight="33.333333"
       steps="2"
       helper_size="0"
       apply_no_weight="true"
       apply_with_weight="true"
       only_selected="false" />
  </defs>
  <g
     inkscape:label="Camada 1"
     inkscape:groupmode="layer"
     id="layer1">
    <path
       style="fill:#d8f3dc;fill-opacity:1;stroke-width:0.0879729"
       d="m 4.6415523,5.2794856 c -0.024843,0.5430888 -0.074526,1.6291807 -0.070378,2.5816091 0.00415,0.9524283 0.062112,1.7711598 0.1283592,2.5188933 0.066247,0.747734 0.1407718,1.424445 0.2815542,2.205607 0.1407824,0.781161 0.3477998,1.666723 0.7245888,2.844726 0.376789,1.178004 0.9233104,2.648375 1.1965562,3.379621 0.2732458,0.731245 0.2732458,0.722445 0.3105058,0.446722 0.03726,-0.275722 0.1117854,-0.818746 0.3395111,-1.370181 0.2277257,-0.551435 0.6086378,-1.11118 1.0392552,-1.574872 0.4306173,-0.463692 0.9108975,-0.831286 1.4657312,-1.161297 0.554834,-0.330012 1.184162,-0.622415 1.801099,-0.84381 0.616936,-0.221395 1.221428,-0.371773 1.809374,-0.472023 0.587945,-0.100251 1.159323,-0.15038 1.4574,-0.187969 0.298076,-0.03759 0.322929,-0.06264 -0.02068,-0.476144 C 14.760817,12.75686 14.048681,11.954843 13.369653,11.2447 12.690624,10.534558 12.044737,9.9163374 11.237348,9.2187189 10.42996,8.5211005 9.4611328,7.7441511 8.4136031,7.0172917 7.3660735,6.2904324 6.2399042,5.6137268 5.6353723,5.2711638 5.0308404,4.9286008 4.9480872,4.9202554 4.8735781,4.8868903 4.7990691,4.8535253 4.7327846,4.7950101 4.6996142,4.7657278 4.6664439,4.7364454 4.6663954,4.7363969 4.6415523,5.2794856 Z"
       id="path299"
       inkscape:path-effect="#path-effect301"
       inkscape:original-d="m 4.6663954,4.7363969 c -0.04962,1.0861805 -0.09928,2.1722735 -0.1490468,3.2582695 0.05807,0.8188497 0.1160116,1.6375829 0.173896,2.4562376 0.074576,0.676814 0.1491343,1.353521 0.2235752,2.03015 0.2071158,0.885687 0.4141344,1.771248 0.6210657,2.656742 0.546625,1.470512 1.0931527,2.940881 1.639593,4.411191 8.74e-5,-0.0078 8.74e-5,-0.0166 0,-0.02506 0.074674,-0.542964 0.1491439,-1.085995 0.2235847,-1.629134 0.381012,-0.559677 0.7619267,-1.11942 1.1427542,-1.679261 0.4803797,-0.367515 0.9606622,-0.735106 1.440857,-1.102795 0.6294456,-0.292327 1.2587746,-0.584729 1.8880276,-0.87723 0.604596,-0.150289 1.209086,-0.300676 1.813499,-0.451141 0.571464,-0.05001 1.14284,-0.100167 1.714121,-0.150387 0.02496,-0.02496 0.04981,-0.05001 0.07458,-0.07516 -0.712083,-0.801961 -1.424215,-1.603982 -2.136452,-2.4061 C 12.690621,10.534561 12.044734,9.9163405 11.398741,9.298013 10.42995,8.5211128 9.4611224,7.744164 8.4921772,6.9670986 7.3660572,6.2904595 6.2398888,5.6137524 5.1136135,4.9369483 5.0308799,4.9282089 4.9480783,4.9203433 4.8651892,4.9118953 4.7990605,4.853535 4.7327765,4.7950193 4.6664439,4.7364454 Z" />
    <path
       id="path303"
       style="fill:#d8f3dc;fill-opacity:1;stroke-width:0.0879729"
       d="m 38.109569,16.846266 c -0.427495,-0.0038 -0.849788,0.02098 -1.239005,0.07109 -0.778414,0.100258 -1.424398,0.300695 -1.813596,0.41766 -0.389198,0.116962 -0.521659,0.150386 -0.587943,0.300812 -0.06623,0.150434 -0.06623,0.417824 -0.08284,1.052776 -0.0166,0.634942 -0.04972,1.637388 0.02476,3.141219 0.07458,1.50383 0.256806,3.508918 0.331354,4.478067 0.07458,0.96915 0.04137,0.902282 -0.44716,0.659965 -0.488537,-0.242306 -1.432594,-0.659995 -2.451151,-0.919013 -1.018546,-0.259008 -2.111593,-0.359182 -3.163271,-0.292356 -1.051688,0.06681 -2.061865,0.300668 -2.86512,0.542945 -0.803264,0.242289 -1.399451,0.492849 -1.946008,0.785271 -0.546548,0.292414 -1.043367,0.626602 -1.300075,0.768695 -0.256698,0.142084 -0.273322,0.09207 -0.438944,-0.442683 C 21.964956,26.876023 21.650258,25.856865 21.302466,24.862662 20.954674,23.86846 20.57372,22.899273 20.027191,21.679504 19.480665,20.459737 18.768552,18.98932 18.33796,18.27077 c -0.430604,-0.71855 -0.579593,-0.685184 -0.720347,-0.685165 -0.140754,2.9e-5 -0.273264,-0.03331 -0.728726,-0.0087 -0.455463,0.02506 -1.233937,0.108536 -1.954379,0.275613 -0.720453,0.167088 -1.382847,0.417727 -1.97081,0.776978 -0.587962,0.35926 -1.101347,0.82719 -1.540244,1.378613 -0.438897,0.551421 -0.803265,1.186257 -1.051689,1.787815 -0.248425,0.601547 -0.3808371,1.169671 -0.4553655,1.470424 -0.074576,0.300756 -0.091182,0.334179 0.090984,0.609909 0.182227,0.27574 0.563172,0.793758 1.532039,1.813014 0.968867,1.019245 2.525688,2.539661 3.867198,3.575618 1.341509,1.035959 2.467599,1.587362 2.997521,1.904827 0.529923,0.317457 0.46366,0.400948 0.231791,0.927298 -0.231867,0.526347 -0.629339,1.495516 -0.852913,2.732026 -0.223576,1.236499 -0.273178,2.740272 -0.03302,4.23575 0.24016,1.495489 0.770065,2.982656 1.747224,4.411278 0.97717,1.428632 2.401461,2.79869 3.95,3.817936 1.548528,1.019246 3.221215,1.687621 4.504752,2.046862 1.283536,0.35923 2.177914,0.409376 2.832103,0.409367 0.654178,0 1.068156,-0.0502 1.573261,-0.300813 0.505092,-0.250639 1.101358,-0.7018 1.763821,-1.32839 0.662461,-0.626591 1.39107,-1.428633 2.020409,-2.230663 0.629338,-0.802031 1.159378,-1.603927 1.614832,-2.51457 0.455444,-0.910633 0.836368,-1.929879 1.093083,-2.949135 0.256709,-1.019246 0.389218,-2.038578 0.422351,-3.041122 0.03311,-1.002543 -0.0331,-1.988347 -0.165583,-2.848865 -0.132491,-0.860517 -0.331257,-1.595739 -0.546545,-2.247404 -0.215292,-0.651663 -0.447112,-1.219651 -0.637546,-1.587261 -0.190444,-0.367614 -0.339625,-0.534702 -0.347947,-0.668425 -0.0087,-0.133724 0.124294,-0.234043 0.621134,-0.827201 0.496839,-0.593167 1.3579,-1.679143 2.086607,-2.715111 0.728717,-1.035968 1.324925,-2.021868 1.846622,-3.041124 0.521698,-1.019255 0.968983,-2.071964 1.200851,-2.656778 0.231879,-0.584807 0.248366,-0.701675 0.165594,-0.935581 C 43.4122,19.623872 43.230024,19.272944 42.907091,18.88026 42.584152,18.487585 42.120435,18.053116 41.52422,17.702196 40.928002,17.351279 40.199431,17.083937 39.379611,16.950243 38.9697,16.883434 38.53697,16.850015 38.109474,16.845825 Z m -8.074126,12.640831 c 0.269243,-0.0078 0.55586,0.05204 0.871043,0.220215 0.360222,0.19219 0.757664,0.526368 1.101299,0.956642 0.343637,0.430273 0.633487,0.956574 0.873618,1.537215 0.240131,0.58064 0.430623,1.215671 0.546538,1.975925 0.115924,0.760268 0.157291,1.645731 0.128304,2.347511 -0.02904,0.701771 -0.128372,1.219768 -0.281575,1.679252 -0.153194,0.459482 -0.360124,0.860439 -0.600257,1.157008 -0.240122,0.29657 -0.513512,0.48877 -0.78261,0.589031 -0.269087,0.100268 -0.534059,0.108548 -0.757634,0.08769 -0.223576,-0.02088 -0.405745,-0.07098 -0.608636,-0.192085 -0.202882,-0.121119 -0.426457,-0.313212 -0.608637,-0.480302 -0.182188,-0.167097 -0.32302,-0.309095 -0.538331,-0.6182 -0.215322,-0.309116 -0.505122,-0.785311 -0.74943,-1.353415 -0.244297,-0.568114 -0.442946,-1.228205 -0.575445,-1.871518 -0.132511,-0.643313 -0.198697,-1.269728 -0.20699,-1.85874 -0.0087,-0.589011 0.04127,-1.14055 0.13651,-1.637662 0.09525,-0.49711 0.236024,-0.939843 0.42235,-1.31165 0.186325,-0.371795 0.418107,-0.67255 0.674843,-0.877248 0.256737,-0.204697 0.538322,-0.313358 0.8406,-0.342587 0.03777,-0.0038 0.07594,-0.0059 0.11444,-0.0068 z" />
    <path
       style="fill:#d8f3dc;fill-opacity:1;stroke-width:0.0879729"
       d="m 35.471013,12.673199 c 0.223602,-0.108618 0.670765,-0.325835 1.130367,-0.492925 0.459602,-0.16709 0.931602,-0.284051 1.465735,-0.346702 0.534132,-0.06265 1.130332,-0.071 1.660311,-0.02504 0.529978,0.04596 0.993703,0.146218 1.461573,0.300791 0.46787,0.154572 0.939871,0.363432 1.378753,0.618259 0.438883,0.254827 0.844635,0.555583 1.200706,0.877247 0.356071,0.321664 0.662455,0.664194 0.819759,0.864721 0.157303,0.200527 0.165585,0.258974 0.20284,-3.1e-5 0.03726,-0.259005 0.1035,-0.835454 0.124214,-1.808766 0.02071,-0.973312 -0.0041,-2.343428 -0.09105,-3.6133205 C 44.737288,7.7775376 44.588238,6.6079247 44.38122,5.4382804 44.174202,4.2686361 43.909219,3.0990211 43.702203,2.2802753 43.495187,1.4615295 43.346137,0.99368385 43.275943,0.75970141 43.205749,0.52571896 43.213649,0.52571896 42.886542,0.80560133 42.559434,1.0854837 41.896988,1.6452245 41.309037,2.2175252 c -0.587951,0.5723006 -1.10135,1.1571048 -1.689298,1.88814 -0.587947,0.7310352 -1.250391,1.6082339 -1.780373,2.4437105 -0.529982,0.8354767 -0.927451,1.6291385 -1.304231,2.556511 -0.37678,0.9273723 -0.732849,1.9883803 -0.931591,2.5940953 -0.198741,0.605714 -0.240142,0.756076 -0.273271,0.860488 -0.03313,0.104412 -0.058,0.162919 -0.07042,0.192138 -0.01242,0.02922 -0.01244,0.02921 0.211159,-0.07941 z"
       id="path307"
       inkscape:path-effect="#path-effect309"
       inkscape:original-d="m 35.247411,12.781818 c 0.447257,-0.217127 0.894417,-0.434351 1.341489,-0.651652 0.472108,-0.116877 0.944108,-0.233839 1.416029,-0.350891 0.596313,-0.0087 1.19252,-0.0166 1.788649,-0.02506 0.463813,0.100339 0.927539,0.20059 1.391169,0.300765 0.472106,0.20895 0.944105,0.417813 1.416027,0.62659 0.405851,0.300851 0.811596,0.601616 1.217273,0.902282 0.306484,0.342637 0.612871,0.685165 0.919168,1.027607 0.0087,0.05856 0.01661,0.11706 0.02486,0.17545 0.06632,-0.576388 0.132587,-1.152834 0.198736,-1.729386 -0.02476,-1.370085 -0.04963,-2.7402 -0.07448,-4.110433 C 44.737353,7.7775293 44.588305,6.6079161 44.439171,5.4381862 44.174267,4.2686215 43.909277,3.099008 43.644209,1.929288 43.49524,1.4615126 43.346183,0.99366917 43.197049,0.52571896 c 0.0087,9.72e-5 0.0166,9.72e-5 0.02486,0 -0.662394,0.55986034 -1.324838,1.11960414 -1.987396,1.67927024 -0.51334,0.5849134 -1.026736,1.1697202 -1.540229,1.7544492 -0.662394,0.8773361 -1.324836,1.7545365 -1.987395,2.6316784 -0.397403,0.7937869 -0.794874,1.5874475 -1.192433,2.3810401 -0.355997,1.0611371 -0.712063,2.1221461 -1.068226,3.1830801 -0.04137,0.150475 -0.08272,0.300851 -0.124217,0.451141 -0.02476,0.05855 -0.04962,0.117061 -0.07458,0.17545 z" />
    <path
       style="fill:#d8f3dc;fill-opacity:1;stroke-width:0.0879729"
       d="m 30.753231,31.974455 c -0.29208,0.007 -0.514577,0.231463 -0.66755,0.659415 -0.152973,0.427953 -0.236412,1.059299 -0.229445,1.683653 0.007,0.624355 0.104309,1.241664 0.292065,1.809883 0.187755,0.568219 0.465874,1.087321 0.716208,1.438059 0.250334,0.350738 0.472833,0.533126 0.660557,0.62428 0.187724,0.09115 0.340694,0.09115 0.493613,-0.05615 0.152918,-0.147301 0.305881,-0.441917 0.403232,-0.862801 0.09735,-0.420884 0.139067,-0.968044 0.111264,-1.536256 -0.0278,-0.568212 -0.125146,-1.157457 -0.2642,-1.718659 -0.139053,-0.561203 -0.319828,-1.094329 -0.590969,-1.466149 -0.271142,-0.371819 -0.632694,-0.582263 -0.924775,-0.575278 z"
       id="path1212"
       inkscape:path-effect="#path-effect1214"
       inkscape:original-d="m 30.683649,31.756961 c -0.22241,0.224566 -0.444907,0.449044 -0.667492,0.673434 -0.08331,0.631446 -0.166787,1.262787 -0.250317,1.894048 0.09743,0.617424 0.194782,1.234732 0.292034,1.851963 0.278215,0.519201 0.556326,1.038307 0.834367,1.557324 0.222595,0.182481 0.445091,0.364874 0.667502,0.547169 0.153047,8.9e-5 0.306017,8.9e-5 0.458899,0 0.153058,-0.294549 0.306018,-0.589166 0.45891,-0.883891 0.04176,-0.547091 0.0835,-1.094249 0.125149,-1.641506 -0.09725,-0.589186 -0.194599,-1.17843 -0.292034,-1.767781 -0.180694,-0.533059 -0.361465,-1.066187 -0.542333,-1.59941 -0.361485,-0.210371 -0.723036,-0.420817 -1.084685,-0.63135 z" />
  </g>
</svg>
